<svg data-v-0dd9719b="" version="1.0" xmlns="http://www.w3.org/2000/svg" xmlns:xlink="http://www.w3.org/1999/xlink" width="100%" height="100%" viewBox="0 0 340.000000 250.000000" preserveAspectRatio="xMidYMid meet" color-interpolation-filters="sRGB" style="margin: auto;"> <rect data-v-0dd9719b="" x="0" y="0" width="100%" height="100%" fill="#fff" fill-opacity="1" class="background"></rect> <rect data-v-0dd9719b="" x="0" y="0" width="100%" height="100%" fill="url(#watermark)" fill-opacity="1" class="watermarklayer"></rect> <g data-v-0dd9719b="" fill="#333" class="icon-text-wrapper icon-svg-group iconsvg" transform="translate(103.15999603271484,69.95125198364258)"><g class="iconsvg-imagesvg" transform="translate(36.840003967285156,0)"><g><rect fill="#333" fill-opacity="0" stroke-width="2" x="0" y="0" width="60" height="55.43749422526102" class="image-rect"></rect> <svg x="0" y="0" width="60" height="55.43749422526102" filtersec="colorsb5792005825" class="image-svg-svg primary" style="overflow: visible;"><svg xmlns="http://www.w3.org/2000/svg" viewBox="-0.001800537109375 0 95.66436004638672 88.38999938964844"><g fill-rule="evenodd"><path d="M48.5.19c-10.46.54-21 1.4-30.88 2.46L2.28 36.94c13.85-1.52 28.93-2.65 43.47-3.07a5.79 5.79 0 0 0 5.81-5.71A176.23 176.23 0 0 0 48.5.19z" fill="#ef4023"></path><path d="M93.79 47.32c-10 1-20.51 1.89-31 2.4A5.8 5.8 0 0 1 57 43.56c.14-15.2-1.51-34.65-4.64-43.56C88 0 100.88 14.65 93.79 47.32zM1.87 41.08c10-1 20.51-1.89 31-2.41a5.8 5.8 0 0 1 5.8 6.16c-.15 15.17 1.5 34.66 4.63 43.56-35.63 0-48.52-14.64-41.43-47.31z" fill="#00497c"></path><path d="M47.16 88.21c10.46-.54 21-1.4 30.88-2.47l15.34-34.28C79.53 53 64.45 54.11 49.91 54.52a5.79 5.79 0 0 0-5.81 5.71 176.48 176.48 0 0 0 3.06 27.98z" fill="#ef4023"></path></g></svg></svg> <!----></g></g> <g transform="translate(0,62.43749237060547)"><g data-gra="path-name" fill-rule="" class="tp-name iconsvg-namesvg"><g transform="scale(1)"><g><path d="M25.99-28.92L25.99-28.92Q25.96-25.08 24.54-22.13 23.12-19.19 20.84-17.2 18.57-15.21 15.79-14.18 13.01-13.15 10.25-13.15L10.25-13.15 9.67-13.15Q9.67-11.92 9.68-10.24 9.7-8.55 9.76-6.58 9.81-4.6 9.92-2.45 10.02-0.29 10.2 1.85L10.2 1.85Q8.47 1.67 7.03 1.61 5.6 1.55 4.51 1.55L4.51 1.55Q3.93 1.55 3.49 1.57 3.05 1.58 2.75 1.58L2.75 1.58Q2.4 1.61 2.17 1.61L2.17 1.61Q2.31-0.67 2.43-2.97 2.55-5.27 2.64-7.49 2.72-9.7 2.77-11.75 2.81-13.8 2.87-15.62L2.87-15.62Q2.96-19.83 2.99-23.7L2.99-23.7Q2.99-27.42 2.93-30.82L2.93-30.82Q2.9-32.26 2.87-33.78 2.84-35.3 2.8-36.74 2.75-38.17 2.71-39.42 2.67-40.66 2.58-41.57L2.58-41.57Q4.83-41.98 6.99-42.08 9.14-42.19 10.55-42.19L10.55-42.19Q11.63-42.19 13.21-42.1 14.79-42.01 16.51-41.62 18.22-41.22 19.92-40.39 21.62-39.55 22.97-38.09 24.32-36.62 25.15-34.38 25.99-32.14 25.99-28.92ZM18.43-28.68L18.43-28.68Q18.43-30.91 17.93-32.5 17.43-34.1 16.42-35.13 15.41-36.15 13.84-36.68 12.28-37.21 10.14-37.32L10.14-37.32Q10.02-34.75 9.95-31.9 9.87-29.06 9.81-26.38 9.76-23.7 9.73-21.4 9.7-19.1 9.67-17.64L9.67-17.64Q11.87-17.75 13.51-18.6 15.15-19.45 16.25-20.89 17.34-22.32 17.89-24.3 18.43-26.28 18.43-28.68ZM49.42-6.3L49.42-6.3Q49.42-4.57 48.63-3.05 47.84-1.52 46.49-0.41 45.15 0.7 43.33 1.35 41.51 1.99 39.46 1.99L39.46 1.99Q38.09 1.99 36.68 1.61 35.27 1.23 33.98 0.35 32.7-0.53 31.55-1.96 30.41-3.4 29.58-5.48 28.74-7.56 28.26-10.36 27.77-13.15 27.77-16.79L27.77-16.79Q27.77-20.21 28.26-22.85 28.74-25.49 29.58-27.45 30.41-29.41 31.52-30.75 32.64-32.08 33.91-32.92 35.19-33.75 36.55-34.1 37.91-34.45 39.23-34.45L39.23-34.45Q41.19-34.45 42.95-33.82 44.71-33.19 46.03-31.96 47.34-30.73 48.12-28.93 48.9-27.13 48.9-24.79L48.9-24.79Q48.9-22.68 48.03-20.52 47.17-18.37 45.47-16.45 43.77-14.53 41.26-12.96 38.76-11.4 35.51-10.49L35.51-10.49Q35.68-8.67 36.02-7.18 36.36-5.68 36.87-4.63 37.38-3.57 38.07-2.99 38.76-2.4 39.67-2.4L39.67-2.4Q40.25-2.43 40.78-2.61L40.78-2.61Q41.25-2.75 41.73-3.08 42.22-3.4 42.54-4.01L42.54-4.01Q41.78-4.37 41.37-4.92 40.96-5.48 40.75-5.98L40.75-5.98Q40.52-6.56 40.49-7.21L40.49-7.21Q40.49-8.61 41.04-9.49 41.6-10.37 42.36-10.87 43.13-11.37 43.92-11.56 44.71-11.75 45.18-11.75L45.18-11.75Q45.67-11.75 46.39-11.54 47.11-11.34 47.78-10.75 48.46-10.17 48.94-9.1 49.42-8.03 49.42-6.3ZM42.19-24.73L42.19-24.73Q42.19-25.78 42-26.73 41.81-27.69 41.44-28.39 41.07-29.09 40.53-29.52 39.99-29.94 39.29-29.94L39.29-29.94Q38.09-29.94 37.32-28.84 36.56-27.74 36.09-25.93 35.63-24.11 35.45-21.74 35.27-19.37 35.27-16.79L35.27-16.79 35.27-14.65Q36.77-15.44 38.04-16.52 39.32-17.61 40.24-18.91 41.16-20.21 41.67-21.68 42.19-23.14 42.19-24.73ZM60.06 1.2L60.06 1.2 52.24 1.79Q52.71-3.46 52.92-8.33 53.14-13.21 53.14-18.11L53.14-18.11Q53.14-21.56 53.04-25.03 52.94-28.51 52.68-32.17L52.68-32.17 59.27-32.52Q59.21-31.88 59.18-31.26 59.15-30.64 59.15-30.06L59.15-30.06Q60.18-31.64 61.39-32.53 62.61-33.43 63.66-33.84L63.66-33.84Q64.86-34.34 66.09-34.45L66.09-34.45Q68.23-34.45 69.76-33.79 71.28-33.13 72.25-32.09 73.21-31.05 73.65-29.78 74.09-28.51 74.09-27.3L74.09-27.3Q74.09-26.07 73.83-24.81 73.56-23.55 72.93-22.54 72.3-21.53 71.26-20.9 70.22-20.27 68.7-20.27L68.7-20.27Q67.18-20.27 66.3-20.83 65.42-21.39 64.97-22.16 64.51-22.94 64.38-23.77 64.25-24.61 64.25-25.2L64.25-25.2Q64.25-25.61 64.39-26.12 64.54-26.63 64.83-27.16 65.13-27.69 65.57-28.2 66.01-28.71 66.59-29.15L66.59-29.15Q66.42-29.21 66.23-29.24 66.04-29.27 65.86-29.27L65.86-29.27Q64.39-29.27 63.25-28.34 62.11-27.42 61.27-25.78 60.44-24.14 59.9-21.91 59.36-19.69 59.09-17.05L59.09-17.05Q59.24-12.51 59.5-8.06 59.77-3.6 60.06 1.2ZM86.54 1.67L86.54 1.67Q83.64 1.67 81.55 0.41 79.45-0.85 78.09-3.11 76.73-5.36 76.08-8.47 75.44-11.57 75.44-15.23L75.44-15.23Q75.44-19.48 76.2-23.03 76.96-26.57 78.44-29.12 79.92-31.67 82.1-33.09 84.29-34.51 87.13-34.51L87.13-34.51Q90-34.51 92.08-33.31 94.16-32.11 95.52-29.94 96.88-27.77 97.53-24.76 98.17-21.74 98.17-18.11L98.17-18.11Q98.17-16.23 97.95-14.03 97.73-11.84 97.22-9.64 96.71-7.44 95.86-5.41 95.01-3.37 93.72-1.79 92.43-0.21 90.66 0.73 88.89 1.67 86.54 1.67ZM91.11-20.27L91.11-20.27Q91.11-22.5 90.91-24.27 90.7-26.04 90.25-27.28 89.79-28.51 89.11-29.17 88.42-29.82 87.45-29.82L87.45-29.82Q86.4-29.82 85.49-28.71 84.58-27.6 83.89-25.49 83.2-23.38 82.81-20.35 82.41-17.31 82.41-13.51L82.41-13.51Q82.41-11.04 82.65-9.1 82.88-7.15 83.35-5.79 83.82-4.42 84.51-3.71 85.2-2.99 86.13-2.99L86.13-2.99Q87.07-2.99 87.8-3.76 88.54-4.54 89.08-5.86 89.62-7.18 90.01-8.92 90.41-10.66 90.64-12.58 90.88-14.5 91-16.49 91.11-18.49 91.11-20.27ZM101.6-32.58L109.22-32.46 109.04-30.06Q110.01-31.67 111.11-32.52 112.21-33.37 113.14-33.72 114.08-34.07 114.71-34.1 115.34-34.13 115.4-34.13L115.4-34.13Q117.57-34.13 119.18-33.13 120.79-32.14 121.85-30.25 122.9-28.36 123.41-25.65 123.93-22.94 123.93-19.51L123.93-19.51Q123.93-16.99 123.85-14.37 123.78-11.75 123.56-9.16 123.34-6.56 122.97-4.1 122.61-1.64 121.99 0.59L121.99 0.59 115.17-0.23Q115.84-3.72 116.22-6.74 116.6-9.76 116.78-12.01L116.78-12.01Q116.98-14.65 117.01-16.85L117.01-16.85Q117.01-19.63 116.84-21.69 116.66-23.76 116.21-25.12 115.75-26.48 114.96-27.16 114.17-27.83 112.94-27.83L112.94-27.83Q112.12-27.66 111.3-26.66L111.3-26.66Q110.6-25.81 109.8-23.95 109.01-22.09 108.43-18.72L108.43-18.72Q108.34-16.44 108.33-14.19 108.31-11.95 108.31-9.43L108.31-9.43Q108.31-7.29 108.31-4.83 108.31-2.37 108.37 0.73L108.37 0.73 101.72 0.59Q101.81-2.4 101.85-5.76 101.89-9.11 101.89-13.21L101.89-13.21Q101.89-17.29 101.84-22.03 101.78-26.78 101.6-32.58L101.6-32.58ZM135.85-41.1L135.85-41.1Q135.85-40.17 135.5-39.33 135.15-38.5 134.53-37.88 133.92-37.27 133.08-36.9 132.25-36.53 131.31-36.53L131.31-36.53Q130.37-36.53 129.54-36.9 128.7-37.27 128.09-37.88 127.47-38.5 127.1-39.33 126.74-40.17 126.74-41.1L126.74-41.1Q126.74-42.04 127.1-42.88 127.47-43.71 128.09-44.33 128.7-44.94 129.54-45.31 130.37-45.67 131.31-45.67L131.31-45.67Q132.25-45.67 133.08-45.31 133.92-44.94 134.53-44.33 135.15-43.71 135.5-42.88 135.85-42.04 135.85-41.1ZM127.21-32.11L135.85-32.23Q135.62-29.91 135.45-27.23 135.29-24.55 135.19-21.74 135.09-18.93 135.03-16.08 134.97-13.24 134.94-10.66 134.91-8.09 134.9-5.84 134.88-3.6 134.88-1.99L134.88-1.99 134.88 1.32 128.23 1.55Q128.29-0.47 128.29-2.37 128.29-4.28 128.29-6.18L128.29-6.18Q128.29-9.49 128.23-12.64 128.17-15.79 128.04-18.96 127.91-22.12 127.71-25.37 127.5-28.62 127.21-32.11L127.21-32.11Z" transform="translate(-2.1700000762939453, 45.66999816894531)"></path></g> <!----> <!----> <!----> <!----> <!----> <!----> <!----></g></g> <!----></g></g><defs v-gra="od"></defs></svg>